<svg id="Layer_1" data-name="Layer 1" xmlns="http://www.w3.org/2000/svg" viewBox="0 0 561.24 97.12"><defs><style>.cls-1{fill:#d77c31;stroke:#d77c31;stroke-miterlimit:10;}</style></defs><title>titre_tranche</title><path class="cls-1" d="M313.1,45.44c24.32,8.29,27,37.15,16.88,52.66-5,7.66-11.73,12.62-21.17,13.17-2.07.12-4.05-.1-4.19-2.75s1.72-2.84,3.85-3.12c11.08-1.46,19.24-10.26,20.79-22.9,1.22-9.93-1.27-18.93-8.81-25.95-3.37-3.14-7.31-5.2-12.27-4.92-3.27.19-4.94-2.69-2.92-5.17,2.32-2.85,2.39-5.28-.23-7.52-3.07-2.62-5.83-1.2-8.32,1.28Q279.46,57.48,262.2,74.7c-1.66,1.65-3.33,3.3-5,5s-3.26,2.91-5.28.95-.56-3.71,1-5.24C265.59,62.71,278.17,50,291,37.46c2.44-2.38,5.62-4.79,8.81-5.42C308,30.43,312.52,35.4,313.1,45.44Z" transform="translate(-26.93 -14.67)"/><path class="cls-1" d="M570.41,56.68c-2.06,7.67-5.38,14.39-11.61,19.23s-13,7.2-20.76,4.76-11.65-9.83-10.09-18c1.39-7.28,8.19-12.24,16-12,6.19.22,12.39.13,18.58.17.67,0,1.35-.09,2-.14,3-11.84-6.62-26.72-18.48-29-2.3-.43-6.61.46-5.57-4,.88-3.81,4.32-2.46,6.91-1.88,13.39,3,23.17,15.29,23.63,29.6.05,1.62,0,3.25,0,5.4,4.43,0,8.52,0,12.6,0,2.09,0,4.06.17,4.09,2.84s-1.76,3-4,3C579.31,56.63,574.92,56.68,570.41,56.68Zm-6.9,0c-6.86,0-13.68-.05-20.5,0a9.17,9.17,0,0,0-9.34,10.16,9.7,9.7,0,0,0,10.49,8.81C553.27,75,562.27,66.33,563.51,56.68Z" transform="translate(-26.93 -14.67)"/><path class="cls-1" d="M192.48,46.46c-10.66,10.68-21.12,21.22-31.65,31.68-1.81,1.79-3.77,5.27-6.66,2.44s.52-4.85,2.33-6.67q19-19.19,38.2-38.28c5.24-5.23,13.06-5.31,17.56-.29A11.37,11.37,0,1,1,194.7,49.77C194,48.82,193.35,47.77,192.48,46.46Zm16.59-3.66a5.28,5.28,0,0,0-5.19-5.11c-3.24.07-5.06,1.89-5.3,5.07-.23,3,2.38,5.87,5.27,5.56C206.9,48,208.81,46.19,209.08,42.8Z" transform="translate(-26.93 -14.67)"/><path class="cls-1" d="M469.2,46.36,437.45,78.17c-.87.88-1.64,2.12-2.69,2.49s-3.18.55-3.89-.15-.42-2.59-.18-3.9c.12-.68,1.06-1.21,1.64-1.8q19.55-19.58,39.1-39.14c5-4.95,12-5.38,16.64-1.11a11.45,11.45,0,0,1,.87,16C483.53,56.73,474.52,55.07,469.2,46.36Zm16.57-2.93a5.54,5.54,0,0,0-5.12-5.77c-2.86-.12-5.76,2.58-5.54,5.39.25,3.18,2.3,5.2,5.33,5.21S485.33,46.15,485.77,43.43Z" transform="translate(-26.93 -14.67)"/><path class="cls-1" d="M72.64,75.7h38.45c.83,0,1.82-.29,2.45.06a33.24,33.24,0,0,1,3.77,2.82c-1.23,1-2.43,2.73-3.7,2.79-6.88.28-13.77.13-20.66.13H34.24c-.83,0-1.83.3-2.45-.06a38.82,38.82,0,0,1-4-3c1.31-.9,2.61-2.56,3.94-2.59,10.47-.22,20.94-.12,31.42-.12Z" transform="translate(-26.93 -14.67)"/><path class="cls-1" d="M382.8,81.5A11.25,11.25,0,1,1,394,70.2,11.06,11.06,0,0,1,382.8,81.5Zm-5.39-11.76c.05,3.4,2.52,5.93,5.21,5.93s5.72-3,5.33-5.7c-.44-3-2.22-5.09-5.5-5A4.84,4.84,0,0,0,377.41,69.74Z" transform="translate(-26.93 -14.67)"/><circle class="cls-1" cx="315.62" cy="78.7" r="2.61" transform="translate(173.16 368.11) rotate(-83.2)"/></svg>